<svg width="1280" height="832" viewBox="0 0 1280 832" fill="none" xmlns="http://www.w3.org/2000/svg">
<g clip-path="url(#clip0_53_4)">
<path d="M1280 111.047H0V111.901H1280V111.047Z" fill="white" fill-opacity="0.17"/>
<path d="M1280 214.407H0V215.261H1280V214.407Z" fill="white" fill-opacity="0.17"/>
<path d="M1280 317.766H0V318.62H1280V317.766Z" fill="white" fill-opacity="0.17"/>
<path d="M1280 421.125H0V421.979H1280V421.125Z" fill="white" fill-opacity="0.17"/>
<path d="M1280 524.485H0V525.339H1280V524.485Z" fill="white" fill-opacity="0.17"/>
<path d="M1280 627.844H0V628.698H1280V627.844Z" fill="white" fill-opacity="0.17"/>
<path d="M1183.11 0H1182.22V832H1183.11V0Z" fill="url(#paint0_linear_53_4)" fill-opacity="0.4"/>
<path d="M1075.56 0H1074.67V832H1075.56V0Z" fill="url(#paint1_linear_53_4)" fill-opacity="0.4"/>
<path d="M968 0H967.111V832H968V0Z" fill="url(#paint2_linear_53_4)" fill-opacity="0.4"/>
<path d="M860.444 0H859.556V832H860.444V0Z" fill="url(#paint3_linear_53_4)" fill-opacity="0.4"/>
<path d="M752.889 0H752V832H752.889V0Z" fill="url(#paint4_linear_53_4)" fill-opacity="0.4"/>
<path d="M645.333 0H644.444V832H645.333V0Z" fill="url(#paint5_linear_53_4)" fill-opacity="0.4"/>
<path d="M537.778 0H536.889V832H537.778V0Z" fill="url(#paint6_linear_53_4)" fill-opacity="0.4"/>
<path d="M430.222 0H429.333V832H430.222V0Z" fill="url(#paint7_linear_53_4)" fill-opacity="0.4"/>
<path d="M322.667 0H321.778V832H322.667V0Z" fill="url(#paint8_linear_53_4)" fill-opacity="0.4"/>
<path d="M215.111 0H214.222V832H215.111V0Z" fill="url(#paint9_linear_53_4)" fill-opacity="0.4"/>
<path d="M107.556 0H106.667V832H107.556V0Z" fill="url(#paint10_linear_53_4)" fill-opacity="0.4"/>
<path d="M1075.39 187C1077.08 195.701 1077.93 200.051 1080.14 203.445C1081.93 206.198 1084.36 208.518 1087.24 210.224C1090.78 212.327 1095.24 213.102 1104.13 214.652L1104.76 214.762L1104.13 214.872C1095.24 216.422 1090.78 217.196 1087.24 219.299C1084.36 221.006 1081.93 223.325 1080.14 226.078C1077.93 229.472 1077.08 233.823 1075.39 242.524C1073.69 233.823 1072.84 229.472 1070.63 226.078C1068.84 223.325 1066.41 221.006 1063.53 219.299C1059.99 217.196 1055.54 216.422 1046.63 214.872L1046 214.762L1046.63 214.652C1055.54 213.102 1059.99 212.327 1063.53 210.224C1066.41 208.518 1068.84 206.198 1070.63 203.445C1072.84 200.051 1073.69 195.701 1075.39 187Z" fill="white" fill-opacity="0.17"/>
<path d="M214.222 611.614C215.887 620.083 222.82 626.686 231.649 628.21L232 628.271L231.649 628.332C222.82 629.856 215.887 636.459 214.222 644.928C212.557 636.459 205.624 629.856 196.796 628.332L196.444 628.271L196.796 628.21C205.624 626.686 212.557 620.083 214.222 611.614Z" fill="white" fill-opacity="0.17"/>
<g filter="url(#filter0_f_53_4)">
<circle cx="968" cy="137" r="350" fill="url(#paint11_linear_53_4)"/>
</g>
</g>
<defs>
<filter id="filter0_f_53_4" x="118" y="-713" width="1700" height="1700" filterUnits="userSpaceOnUse" color-interpolation-filters="sRGB">
<feFlood flood-opacity="0" result="BackgroundImageFix"/>
<feBlend mode="normal" in="SourceGraphic" in2="BackgroundImageFix" result="shape"/>
<feGaussianBlur stdDeviation="250" result="effect1_foregroundBlur_53_4"/>
</filter>
<linearGradient id="paint0_linear_53_4" x1="1182.67" y1="0" x2="1182.67" y2="832" gradientUnits="userSpaceOnUse">
<stop stop-color="white" stop-opacity="0.3"/>
<stop offset="0.677083" stop-color="white" stop-opacity="0.2"/>
<stop offset="1" stop-color="white" stop-opacity="0"/>
</linearGradient>
<linearGradient id="paint1_linear_53_4" x1="1075.11" y1="0" x2="1075.11" y2="832" gradientUnits="userSpaceOnUse">
<stop stop-color="white" stop-opacity="0.3"/>
<stop offset="0.677083" stop-color="white" stop-opacity="0.2"/>
<stop offset="1" stop-color="white" stop-opacity="0"/>
</linearGradient>
<linearGradient id="paint2_linear_53_4" x1="967.556" y1="0" x2="967.556" y2="832" gradientUnits="userSpaceOnUse">
<stop stop-color="white" stop-opacity="0.3"/>
<stop offset="0.677083" stop-color="white" stop-opacity="0.2"/>
<stop offset="1" stop-color="white" stop-opacity="0"/>
</linearGradient>
<linearGradient id="paint3_linear_53_4" x1="860" y1="0" x2="860" y2="832" gradientUnits="userSpaceOnUse">
<stop stop-color="white" stop-opacity="0.3"/>
<stop offset="0.677083" stop-color="white" stop-opacity="0.2"/>
<stop offset="1" stop-color="white" stop-opacity="0"/>
</linearGradient>
<linearGradient id="paint4_linear_53_4" x1="752.444" y1="0" x2="752.444" y2="832" gradientUnits="userSpaceOnUse">
<stop stop-color="white" stop-opacity="0.3"/>
<stop offset="0.677083" stop-color="white" stop-opacity="0.2"/>
<stop offset="1" stop-color="white" stop-opacity="0"/>
</linearGradient>
<linearGradient id="paint5_linear_53_4" x1="644.889" y1="0" x2="644.889" y2="832" gradientUnits="userSpaceOnUse">
<stop stop-color="white" stop-opacity="0.3"/>
<stop offset="0.677083" stop-color="white" stop-opacity="0.2"/>
<stop offset="1" stop-color="white" stop-opacity="0"/>
</linearGradient>
<linearGradient id="paint6_linear_53_4" x1="537.333" y1="0" x2="537.333" y2="832" gradientUnits="userSpaceOnUse">
<stop stop-color="white" stop-opacity="0.3"/>
<stop offset="0.677083" stop-color="white" stop-opacity="0.2"/>
<stop offset="1" stop-color="white" stop-opacity="0"/>
</linearGradient>
<linearGradient id="paint7_linear_53_4" x1="429.778" y1="0" x2="429.778" y2="832" gradientUnits="userSpaceOnUse">
<stop stop-color="white" stop-opacity="0.3"/>
<stop offset="0.677083" stop-color="white" stop-opacity="0.2"/>
<stop offset="1" stop-color="white" stop-opacity="0"/>
</linearGradient>
<linearGradient id="paint8_linear_53_4" x1="322.222" y1="0" x2="322.222" y2="832" gradientUnits="userSpaceOnUse">
<stop stop-color="white" stop-opacity="0.3"/>
<stop offset="0.677083" stop-color="white" stop-opacity="0.2"/>
<stop offset="1" stop-color="white" stop-opacity="0"/>
</linearGradient>
<linearGradient id="paint9_linear_53_4" x1="214.667" y1="0" x2="214.667" y2="832" gradientUnits="userSpaceOnUse">
<stop stop-color="white" stop-opacity="0.3"/>
<stop offset="0.677083" stop-color="white" stop-opacity="0.2"/>
<stop offset="1" stop-color="white" stop-opacity="0"/>
</linearGradient>
<linearGradient id="paint10_linear_53_4" x1="107.111" y1="0" x2="107.111" y2="832" gradientUnits="userSpaceOnUse">
<stop stop-color="white" stop-opacity="0.3"/>
<stop offset="0.677083" stop-color="white" stop-opacity="0.2"/>
<stop offset="1" stop-color="white" stop-opacity="0"/>
</linearGradient>
<linearGradient id="paint11_linear_53_4" x1="968" y1="-213" x2="968" y2="487" gradientUnits="userSpaceOnUse">
<stop offset="0.245192" stop-color="#462399"/>
<stop offset="0.514423" stop-color="#844AC2"/>
<stop offset="0.783654" stop-color="#4156A7"/>
</linearGradient>
<clipPath id="clip0_53_4">
<rect width="1280" height="832" fill="white"/>
</clipPath>
</defs>
</svg>
