<?xml version="1.0" encoding="UTF-8"?>
<svg version="1.1" xmlns="http://www.w3.org/2000/svg" width="300" height="200">
<path d="M0 0 C1.67542976 0.28604898 3.34385343 0.61781233 5 1 C5 1.66 5 2.32 5 3 C5.7425 3.28875 6.485 3.5775 7.25 3.875 C10 5 10 5 11.9375 6.125 C14.94022772 7.39888449 16.73624034 7.4310626 20 7 C21.54459604 6.16766468 23.06436341 5.28831583 24.5625 4.375 C28.66298503 1.93259701 28.66298503 1.93259701 31.8125 2.5625 C32.534375 3.036875 33.25625 3.51125 34 4 C37.81013549 6.36491168 41.62026792 6.7217536 46 6 C47.91633618 5.06269046 47.91633618 5.06269046 49.6875 3.875 C53 2 53 2 55.5625 2.5625 C56.366875 3.036875 57.17125 3.51125 58 4 C63.70226802 7.07586072 63.70226802 7.07586072 70 8 C74.30114724 6.03468178 77.36633786 3.95049322 80 0 C81.65 0.33 83.3 0.66 85 1 C84.86980469 1.66386719 84.73960937 2.32773438 84.60546875 3.01171875 C84.179164 5.74086601 83.89033696 8.23733491 84 11 C86.10599174 14.19328884 86.10599174 14.19328884 89 16 C89.66 16 90.32 16 91 16 C91.33 13.03 91.66 10.06 92 7 C92.66 7 93.32 7 94 7 C94.06058594 7.59167969 94.12117188 8.18335938 94.18359375 8.79296875 C94.62012371 12.90978208 95.08671346 16.95544533 96 21 C94.2365625 21.4640625 94.2365625 21.4640625 92.4375 21.9375 C86.81709367 23.76907012 82.0271254 26.82221898 77.05444336 29.95092773 C72.18358651 33 72.18358651 33 70 33 C69.67 34.32 69.34 35.64 69 37 C67.84242188 37.23847656 66.68484375 37.47695312 65.4921875 37.72265625 C60.85643404 38.88414847 57.15526102 40.92264962 53.125 43.4375 C52.46242188 43.83259766 51.79984375 44.22769531 51.1171875 44.63476562 C47.99354349 46.54260104 46.05616567 47.91575149 44 51 C40.15304268 50.4801409 38.64667542 49.73940136 36 47 C33.60340018 45.42195716 31.20818753 43.91193146 28.75 42.4375 C27.78513672 41.83905273 27.78513672 41.83905273 26.80078125 41.22851562 C23.57799506 39.28641409 20.93522994 37.98218146 17.265625 36.97265625 C13.59535351 35.8794773 12.58689016 34.72459534 10 32 C7.45708698 30.31006181 4.79865938 28.84673911 2.125 27.375 C1.43019531 26.98054688 0.73539063 26.58609375 0.01953125 26.1796875 C-3.90004411 23.99476414 -7.66758206 22.26305602 -12 21 C-11.855625 20.360625 -11.71125 19.72125 -11.5625 19.0625 C-10.82763202 15.06155212 -10.41418889 11.04495104 -10 7 C-9.34 7 -8.68 7 -8 7 C-7.67 9.97 -7.34 12.94 -7 16 C-3.34683329 14.75023244 -2.21934164 14.32901247 0 11 C0.21810936 8.23728141 -0.00655208 5.9679676 -0.5625 3.25 C-0.706875 2.5075 -0.85125 1.765 -1 1 C-0.67 0.67 -0.34 0.34 0 0 Z M4 5 C2.75348985 6.03119607 2.75348985 6.03119607 2.8125 8.25 C3.02435439 11.35719774 3.55943489 13.2342852 5 16 C7.39461437 17.87457987 7.39461437 17.87457987 10.34765625 19.375 C11.42853516 19.96796875 12.50941406 20.5609375 13.62304688 21.171875 C14.75806641 21.77515625 15.89308594 22.3784375 17.0625 23 C18.17044922 23.60328125 19.27839844 24.2065625 20.41992188 24.828125 C22.59198985 26.00985329 24.76721023 27.18580886 26.94580078 28.35546875 C30.98600998 30.53091633 34.99627825 32.75827739 39 35 C41.18973497 33.18582291 41.18973497 33.18582291 41.4375 30.6875 C40.8068538 26.8135305 38.9057195 25.60046439 36 23 C33.59597738 21.28167136 31.10411196 19.7552019 28.5625 18.25 C27.91990234 17.85167969 27.27730469 17.45335937 26.61523438 17.04296875 C22.70126723 14.69856203 19.57992563 13.61573018 15 13 C14.31513275 11.67592331 13.65129797 10.34090759 13 9 C10.27695194 7.03594333 7.43918782 5 4 5 Z M23.75 7.5 C22.69039062 8.19609375 22.69039062 8.19609375 21.609375 8.90625 C21.07828125 9.2671875 20.5471875 9.628125 20 10 C21.56505478 14.69516433 25.43907909 15.8770035 29.625 18.1875 C30.42035156 18.65091797 31.21570313 19.11433594 32.03515625 19.59179688 C36.83249225 22.26617384 40.39182367 23.9651867 46 23 C49.15574768 21.68161639 52.02145527 20.02911213 54.9375 18.25 C55.71673828 17.8065625 56.49597656 17.363125 57.29882812 16.90625 C60.30799848 15.1639641 60.30799848 15.1639641 63 13 C63 11.68 63 10.36 63 9 C58.31709426 5.78394573 58.31709426 5.78394573 52.875 5.0625 C49.86123936 6.04524804 47.54583193 7.10881057 45 9 C44.67 9.99 44.34 10.98 44 12 C42.68 12 41.36 12 40 12 C39.67 11.01 39.34 10.02 39 9 C33.39823465 5.30072099 29.82228544 3.45180971 23.75 7.5 Z M79 5 C76.77828217 5.88236297 76.77828217 5.88236297 74.4375 7.25 C73.63183594 7.68828125 72.82617188 8.1265625 71.99609375 8.578125 C69.69989309 9.91828714 69.69989309 9.91828714 69 13 C67.36627404 13.47676828 65.72868208 13.94315953 64.07666016 14.35205078 C60.13456466 15.5820439 56.70931549 17.82074533 53.1875 19.9375 C52.42501953 20.38029297 51.66253906 20.82308594 50.87695312 21.27929688 C46.34058231 23.95019683 46.34058231 23.95019683 43 28 C42.83286431 30.62531524 42.83286431 30.62531524 43 33 C44.70671864 33.80667457 44.70671864 33.80667457 47 34 C49.86918135 32.81199409 49.86918135 32.81199409 52.8671875 30.95703125 C54.00027344 30.29509766 55.13335937 29.63316406 56.30078125 28.95117188 C57.49226305 28.23840752 58.68366869 27.52551584 59.875 26.8125 C61.05795186 26.11804605 62.2415399 25.42467459 63.42578125 24.73242188 C74.05945051 19.58493771 74.05945051 19.58493771 81 11 C81.16750414 8.33290931 81.16750414 8.33290931 81 6 C80.34 5.67 79.68 5.34 79 5 Z M-6 19 C-2.54124929 22.91692288 1.43512109 25.22998118 5.9375 27.75 C6.64068359 28.16121094 7.34386719 28.57242188 8.06835938 28.99609375 C11.82511769 31.11565186 14.551261 32.59200441 19 32 C19.25144775 32.60610107 19.50289551 33.21220215 19.76196289 33.83666992 C21.18513739 36.32350669 22.3624311 37.16429148 24.80859375 38.61328125 C25.55560547 39.05607422 26.30261719 39.49886719 27.07226562 39.95507812 C27.85279297 40.40302734 28.63332031 40.85097656 29.4375 41.3125 C30.21416016 41.77978516 30.99082031 42.24707031 31.79101562 42.72851562 C32.53931641 43.16486328 33.28761719 43.60121094 34.05859375 44.05078125 C34.74236084 44.44950439 35.42612793 44.84822754 36.13061523 45.2590332 C38.17201343 46.30018818 38.17201343 46.30018818 41 45 C41.41809201 42.16848027 41.41809201 42.16848027 41 39 C37.65550398 35.91174781 33.94164315 33.68248593 30 31.43359375 C28.2984375 30.4580957 28.2984375 30.4580957 26.5625 29.46289062 C25.3750838 28.78761305 24.18758306 28.11248409 23 27.4375 C21.81226971 26.75886644 20.62476763 26.07983329 19.4375 25.40039062 C17.25121397 24.1494872 15.06383454 22.9004914 12.875 21.65405273 C11.00422956 20.57775605 9.14876942 19.47424449 7.3125 18.34008789 C2.14689237 15.34663136 -1.22305813 15.48754275 -6 19 Z M75 19 C70.88497514 21.11704327 66.91228108 23.44449256 62.9375 25.8125 C61.90044922 26.41642578 60.86339844 27.02035156 59.79492188 27.64257812 C50.89718056 32.635454 50.89718056 32.635454 43 39 C42.32833293 42.25696104 42.32833293 42.25696104 43 45 C43.66 45.33 44.32 45.66 45 46 C48.33859862 44.55100901 51.42630248 42.59105987 54.5625 40.75 C55.45130859 40.24597656 56.34011719 39.74195313 57.25585938 39.22265625 C58.10083984 38.73152344 58.94582031 38.24039063 59.81640625 37.734375 C60.59443604 37.28288086 61.37246582 36.83138672 62.17407227 36.36621094 C64.30180427 35.04482492 64.30180427 35.04482492 65 32 C66.89049111 31.53159707 68.78360272 31.07166066 70.6875 30.66113281 C74.84279323 29.47315413 78.3480996 27.1344947 82 24.875 C83.16208984 24.17310547 83.16208984 24.17310547 84.34765625 23.45703125 C86.23755776 22.3137575 88.12122586 21.16143565 90 20 C85.03975928 14.5673554 81.10007759 16.40749509 75 19 Z " fill="#DEDEDE" transform="translate(104,124)"/>
<path d="M0 0 C3.84695732 0.5198591 5.35332458 1.26059864 8 4 C10.39659982 5.57804284 12.79181247 7.08806854 15.25 8.5625 C15.89324219 8.96146484 16.53648437 9.36042969 17.19921875 9.77148438 C20.42200494 11.71358591 23.06477006 13.01781854 26.734375 14.02734375 C30.40464649 15.1205227 31.41310984 16.27540466 34 19 C36.54291302 20.68993819 39.20134062 22.15326089 41.875 23.625 C42.56980469 24.01945312 43.26460938 24.41390625 43.98046875 24.8203125 C47.90004411 27.00523586 51.66758206 28.73694398 56 30 C55.855625 30.639375 55.71125 31.27875 55.5625 31.9375 C54.82763202 35.93844788 54.41418889 39.95504896 54 44 C53.34 44 52.68 44 52 44 C51.505 39.545 51.505 39.545 51 35 C47.34683329 36.24976756 46.21934164 36.67098753 44 40 C43.72462632 43.48806665 44.22309257 46.60102997 45 50 C43.35 50.33 41.7 50.66 40 51 C39.67 50.01 39.34 49.02 39 48 C36.6569191 46.87914688 36.6569191 46.87914688 34 46 C33.360625 45.62875 32.72125 45.2575 32.0625 44.875 C29.05977228 43.60111551 27.26375966 43.5689374 24 44 C22.45540396 44.83233532 20.93563659 45.71168417 19.4375 46.625 C15.33701497 49.06740299 15.33701497 49.06740299 12.1875 48.4375 C11.465625 47.963125 10.74375 47.48875 10 47 C6.18986451 44.63508832 2.37973208 44.2782464 -2 45 C-3.91633618 45.93730954 -3.91633618 45.93730954 -5.6875 47.125 C-9 49 -9 49 -11.5625 48.4375 C-12.366875 47.963125 -13.17125 47.48875 -14 47 C-19.70226802 43.92413928 -19.70226802 43.92413928 -26 43 C-30.30114724 44.96531822 -33.36633786 47.04950678 -36 51 C-37.65 50.67 -39.3 50.34 -41 50 C-40.86980469 49.33613281 -40.73960938 48.67226562 -40.60546875 47.98828125 C-40.179164 45.25913399 -39.89033696 42.76266509 -40 40 C-42.10599174 36.80671116 -42.10599174 36.80671116 -45 35 C-45.66 35 -46.32 35 -47 35 C-47.33 37.97 -47.66 40.94 -48 44 C-48.66 44 -49.32 44 -50 44 C-50.06058594 43.40832031 -50.12117188 42.81664062 -50.18359375 42.20703125 C-50.62012371 38.09021792 -51.08671346 34.04455467 -52 30 C-50.2365625 29.5359375 -50.2365625 29.5359375 -48.4375 29.0625 C-42.81709367 27.23092988 -38.0271254 24.17778102 -33.05444336 21.04907227 C-28.18358651 18 -28.18358651 18 -26 18 C-25.67 16.68 -25.34 15.36 -25 14 C-23.84242187 13.76152344 -22.68484375 13.52304687 -21.4921875 13.27734375 C-16.85643404 12.11585153 -13.15526102 10.07735038 -9.125 7.5625 C-8.46242187 7.16740234 -7.79984375 6.77230469 -7.1171875 6.36523438 C-3.99354349 4.45739896 -2.05616567 3.08424851 0 0 Z M4 5 C2.69676169 6.10075495 2.69676169 6.10075495 2.625 8.8125 C2.66316482 12.12105506 2.66316482 12.12105506 5.1484375 13.97631836 C8.02614719 16.018556 10.93530877 17.81785624 14 19.56640625 C15.134375 20.21673828 16.26875 20.86707031 17.4375 21.53710938 C18.6249162 22.21238695 19.81241694 22.88751591 21 23.5625 C22.18773029 24.24113356 23.37523237 24.92016671 24.5625 25.59960938 C26.74878603 26.8505128 28.93616546 28.0995086 31.125 29.34594727 C32.99577044 30.42224395 34.85123058 31.52575551 36.6875 32.65991211 C39.56005622 34.32455116 41.681762 34.86174008 45 35 C47.83658587 33.68326167 47.83658587 33.68326167 50 32 C46.54124929 28.08307712 42.56487891 25.77001882 38.0625 23.25 C37.35931641 22.83878906 36.65613281 22.42757812 35.93164062 22.00390625 C32.17488231 19.88434814 29.448739 18.40799559 25 19 C24.74927734 18.39317383 24.49855469 17.78634766 24.24023438 17.16113281 C22.80671972 14.6632053 21.63030281 13.85099344 19.15625 12.421875 C18.40472656 11.98359375 17.65320313 11.5453125 16.87890625 11.09375 C15.70134766 10.42859375 15.70134766 10.42859375 14.5 9.75 C13.71496094 9.29109375 12.92992187 8.8321875 12.12109375 8.359375 C8.29441406 5.90054085 8.29441406 5.90054085 4 5 Z M-1 5 C-4.33859862 6.44899099 -7.42630248 8.40894013 -10.5625 10.25 C-11.45130859 10.75402344 -12.34011719 11.25804687 -13.25585938 11.77734375 C-14.10083984 12.26847656 -14.94582031 12.75960937 -15.81640625 13.265625 C-16.59443604 13.71711914 -17.37246582 14.16861328 -18.17407227 14.63378906 C-20.30180427 15.95517508 -20.30180427 15.95517508 -21 19 C-22.89049111 19.46840293 -24.78360272 19.92833934 -26.6875 20.33886719 C-30.84279323 21.52684587 -34.3480996 23.8655053 -38 26.125 C-38.77472656 26.59292969 -39.54945312 27.06085937 -40.34765625 27.54296875 C-42.23755776 28.6862425 -44.12122586 29.83856435 -46 31 C-43.94766315 33.2477975 -42.99332739 34.0022242 -40 35 C-32.31119787 33.66490443 -25.52395978 29.1114358 -18.9375 25.1875 C-17.90044922 24.58357422 -16.86339844 23.97964844 -15.79492188 23.35742188 C-6.89718056 18.364546 -6.89718056 18.364546 1 12 C1.67166707 8.74303896 1.67166707 8.74303896 1 6 C0.34 5.67 -0.32 5.34 -1 5 Z M5 16 C2.81026503 17.81417709 2.81026503 17.81417709 2.5625 20.3125 C3.1931462 24.1864695 5.0942805 25.39953561 8 28 C10.40402262 29.71832864 12.89588804 31.2447981 15.4375 32.75 C16.08009766 33.14832031 16.72269531 33.54664062 17.38476562 33.95703125 C21.29873277 36.30143797 24.42007437 37.38426982 29 38 C29.68486725 39.32407669 30.34870203 40.65909241 31 42 C33.25807798 43.71613927 35.40064996 44.76872893 38 46 C38.99 45.67 39.98 45.34 41 45 C41.22210713 41.11312522 40.81108731 38.46150021 39 35 C36.60538563 33.12542013 36.60538563 33.12542013 33.65234375 31.625 C32.03102539 30.73554687 32.03102539 30.73554687 30.37695312 29.828125 C29.24193359 29.22484375 28.10691406 28.6215625 26.9375 28 C25.82955078 27.39671875 24.72160156 26.7934375 23.58007812 26.171875 C21.40801015 24.99014671 19.23278977 23.81419114 17.05419922 22.64453125 C13.01399002 20.46908367 9.00372175 18.24172261 5 16 Z M-8.8671875 20.04296875 C-10.00027344 20.70490234 -11.13335937 21.36683594 -12.30078125 22.04882812 C-13.49226305 22.76159248 -14.68366869 23.47448416 -15.875 24.1875 C-17.05795186 24.88195395 -18.2415399 25.57532541 -19.42578125 26.26757812 C-30.05945051 31.41506229 -30.05945051 31.41506229 -37 40 C-37.16750414 42.66709069 -37.16750414 42.66709069 -37 45 C-36.34 45.33 -35.68 45.66 -35 46 C-32.77828217 45.11763703 -32.77828217 45.11763703 -30.4375 43.75 C-29.22900391 43.09257813 -29.22900391 43.09257813 -27.99609375 42.421875 C-25.69989309 41.08171286 -25.69989309 41.08171286 -25 38 C-23.36627404 37.52323172 -21.72868208 37.05684047 -20.07666016 36.64794922 C-16.13456466 35.4179561 -12.70931549 33.17925467 -9.1875 31.0625 C-8.42501953 30.61970703 -7.66253906 30.17691406 -6.87695312 29.72070312 C-2.34058231 27.04980317 -2.34058231 27.04980317 1 23 C1.16713569 20.37468476 1.16713569 20.37468476 1 18 C-3.09921677 16.26778986 -5.21077144 17.88417907 -8.8671875 20.04296875 Z M-10.9375 32.75 C-12.10635742 33.41515625 -12.10635742 33.41515625 -13.29882812 34.09375 C-16.30799848 35.8360359 -16.30799848 35.8360359 -19 38 C-19 39.32 -19 40.64 -19 42 C-14.31709426 45.21605427 -14.31709426 45.21605427 -8.875 45.9375 C-5.86123936 44.95475196 -3.54583193 43.89118943 -1 42 C-0.67 41.01 -0.34 40.02 0 39 C1.32 39 2.64 39 4 39 C4.33 39.99 4.66 40.98 5 42 C9.62222318 45.27370026 9.62222318 45.27370026 15.0625 46 C18.49526597 44.83139882 21.09153847 43.14672161 24 41 C22.43494522 36.30483567 18.56092091 35.1229965 14.375 32.8125 C13.57964844 32.34908203 12.78429687 31.88566406 11.96484375 31.40820312 C2.96529443 26.39121299 -2.41106456 27.54792457 -10.9375 32.75 Z " fill="#D9D9D9" transform="translate(144,24)"/>
<path d="M0 0 C1.67542976 0.28604898 3.34385343 0.61781233 5 1 C5 1.66 5 2.32 5 3 C7.53505545 4.02587676 10.07178226 5.02622813 12.640625 5.96484375 C13.50171875 6.28582031 14.3628125 6.60679687 15.25 6.9375 C16.55710937 7.41509766 16.55710937 7.41509766 17.890625 7.90234375 C20 9 20 9 21 12 C23.72489332 14.03341417 26.76869781 15.5598576 29.75 17.1875 C30.96816406 17.88262695 30.96816406 17.88262695 32.2109375 18.59179688 C33.00242188 19.02943359 33.79390625 19.46707031 34.609375 19.91796875 C35.33092773 20.31781982 36.05248047 20.7176709 36.79589844 21.12963867 C39.33319499 22.1315729 41.29576919 22.15811266 44 22 C44.38218767 23.65614657 44.71395102 25.32457024 45 27 C44.505 27.495 44.505 27.495 44 28 C43.84825507 30.73140867 44.01319198 33.06449413 44.5625 35.75 C44.706875 36.4925 44.85125 37.235 45 38 C44.67 38.33 44.34 38.66 44 39 C43.82576399 42.83319229 44.12196632 46.26835686 45 50 C42.75 50.75 42.75 50.75 40 51 C38.65905216 49.67432491 37.32764755 48.33899497 36 47 C33.63953058 45.32773284 31.17297566 43.85298354 28.6875 42.375 C27.7294043 41.78332031 27.7294043 41.78332031 26.75195312 41.1796875 C23.54745043 39.25763522 20.91481188 37.97662902 17.26953125 36.9765625 C13.59807406 35.87995043 12.58813283 34.72590416 10 32 C7.45708698 30.31006181 4.79865938 28.84673911 2.125 27.375 C1.43019531 26.98054688 0.73539063 26.58609375 0.01953125 26.1796875 C-3.90004411 23.99476414 -7.66758206 22.26305602 -12 21 C-11.855625 20.360625 -11.71125 19.72125 -11.5625 19.0625 C-10.82763202 15.06155212 -10.41418889 11.04495104 -10 7 C-9.34 7 -8.68 7 -8 7 C-7.67 9.97 -7.34 12.94 -7 16 C-3.34683329 14.75023244 -2.21934164 14.32901247 0 11 C0.21810936 8.23728141 -0.00655208 5.9679676 -0.5625 3.25 C-0.706875 2.5075 -0.85125 1.765 -1 1 C-0.67 0.67 -0.34 0.34 0 0 Z M4 5 C2.75348985 6.03119607 2.75348985 6.03119607 2.8125 8.25 C3.02435439 11.35719774 3.55943489 13.2342852 5 16 C7.39461437 17.87457987 7.39461437 17.87457987 10.34765625 19.375 C11.42853516 19.96796875 12.50941406 20.5609375 13.62304688 21.171875 C14.75806641 21.77515625 15.89308594 22.3784375 17.0625 23 C18.17044922 23.60328125 19.27839844 24.2065625 20.41992188 24.828125 C22.59198985 26.00985329 24.76721023 27.18580886 26.94580078 28.35546875 C30.98600998 30.53091633 34.99627825 32.75827739 39 35 C41.18973497 33.18582291 41.18973497 33.18582291 41.4375 30.6875 C40.8068538 26.8135305 38.9057195 25.60046439 36 23 C33.59597738 21.28167136 31.10411196 19.7552019 28.5625 18.25 C27.91990234 17.85167969 27.27730469 17.45335937 26.61523438 17.04296875 C22.70126723 14.69856203 19.57992563 13.61573018 15 13 C14.31513275 11.67592331 13.65129797 10.34090759 13 9 C10.27695194 7.03594333 7.43918782 5 4 5 Z M-6 19 C-2.54124929 22.91692288 1.43512109 25.22998118 5.9375 27.75 C6.64068359 28.16121094 7.34386719 28.57242188 8.06835938 28.99609375 C11.82511769 31.11565186 14.551261 32.59200441 19 32 C19.25144775 32.60610107 19.50289551 33.21220215 19.76196289 33.83666992 C21.18513739 36.32350669 22.3624311 37.16429148 24.80859375 38.61328125 C25.55560547 39.05607422 26.30261719 39.49886719 27.07226562 39.95507812 C27.85279297 40.40302734 28.63332031 40.85097656 29.4375 41.3125 C30.21416016 41.77978516 30.99082031 42.24707031 31.79101562 42.72851562 C32.53931641 43.16486328 33.28761719 43.60121094 34.05859375 44.05078125 C34.74236084 44.44950439 35.42612793 44.84822754 36.13061523 45.2590332 C38.17201343 46.30018818 38.17201343 46.30018818 41 45 C41.41809201 42.16848027 41.41809201 42.16848027 41 39 C37.65550398 35.91174781 33.94164315 33.68248593 30 31.43359375 C28.2984375 30.4580957 28.2984375 30.4580957 26.5625 29.46289062 C25.3750838 28.78761305 24.18758306 28.11248409 23 27.4375 C21.81226971 26.75886644 20.62476763 26.07983329 19.4375 25.40039062 C17.25121397 24.1494872 15.06383454 22.9004914 12.875 21.65405273 C11.00422956 20.57775605 9.14876942 19.47424449 7.3125 18.34008789 C2.14689237 15.34663136 -1.22305813 15.48754275 -6 19 Z " fill="#DEDEDE" transform="translate(104,124)"/>
<path d="M0 0 C2.475 0.495 2.475 0.495 5 1 C4.91621094 1.73605469 4.83242187 2.47210937 4.74609375 3.23046875 C4.64425781 4.20628906 4.54242188 5.18210937 4.4375 6.1875 C4.33308594 7.15042969 4.22867188 8.11335938 4.12109375 9.10546875 C4.00248381 11.94062898 4.41691897 14.24138974 5 17 C4.505 17.495 4.505 17.495 4 18 C3.80617725 21.48880949 4.22324489 24.60169639 5 28 C3.35 28.33 1.7 28.66 0 29 C-0.38218767 27.34385343 -0.71395102 25.67542976 -1 24 C-0.505 23.505 -0.505 23.505 0 23 C0.04063832 21.33382885 0.042721 19.66611905 0 18 C-4.1086553 18.59001334 -7.00440631 19.94343089 -10.5625 22.0546875 C-11.60664063 22.66957031 -12.65078125 23.28445312 -13.7265625 23.91796875 C-14.80679688 24.56378906 -15.88703125 25.20960937 -17 25.875 C-18.08023438 26.51308594 -19.16046875 27.15117188 -20.2734375 27.80859375 C-23.18689939 29.53149282 -26.09522224 31.26250866 -29 33 C-29.91265625 33.52480957 -30.8253125 34.04961914 -31.765625 34.59033203 C-34.32410559 36.20447833 -35.07592821 37.14377811 -36 40 C-36.26863968 43.49231587 -35.77806741 46.59595509 -35 50 C-37.475 50.495 -37.475 50.495 -40 51 C-40.38218767 49.34385343 -40.71395102 47.67542976 -41 46 C-40.505 45.505 -40.505 45.505 -40 45 C-39.49758678 42.6704053 -39.49758678 42.6704053 -40 40 C-42.27110728 37.14515489 -42.27110728 37.14515489 -45 35 C-45.66 35 -46.32 35 -47 35 C-47.33 37.97 -47.66 40.94 -48 44 C-48.66 44 -49.32 44 -50 44 C-50.06058594 43.40832031 -50.12117188 42.81664062 -50.18359375 42.20703125 C-50.62012371 38.09021792 -51.08671346 34.04455467 -52 30 C-50.2365625 29.5359375 -50.2365625 29.5359375 -48.4375 29.0625 C-42.81709367 27.23092988 -38.0271254 24.17778102 -33.05444336 21.04907227 C-28.18358651 18 -28.18358651 18 -26 18 C-25.67 16.68 -25.34 15.36 -25 14 C-23.84242187 13.76152344 -22.68484375 13.52304687 -21.4921875 13.27734375 C-16.85643404 12.11585153 -13.15526102 10.07735038 -9.125 7.5625 C-8.46242187 7.16740234 -7.79984375 6.77230469 -7.1171875 6.36523438 C-3.99354349 4.45739896 -2.05616567 3.08424851 0 0 Z M-1 5 C-4.33859862 6.44899099 -7.42630248 8.40894013 -10.5625 10.25 C-11.45130859 10.75402344 -12.34011719 11.25804687 -13.25585938 11.77734375 C-14.10083984 12.26847656 -14.94582031 12.75960937 -15.81640625 13.265625 C-16.59443604 13.71711914 -17.37246582 14.16861328 -18.17407227 14.63378906 C-20.30180427 15.95517508 -20.30180427 15.95517508 -21 19 C-22.89049111 19.46840293 -24.78360272 19.92833934 -26.6875 20.33886719 C-30.84279323 21.52684587 -34.3480996 23.8655053 -38 26.125 C-38.77472656 26.59292969 -39.54945312 27.06085937 -40.34765625 27.54296875 C-42.23755776 28.6862425 -44.12122586 29.83856435 -46 31 C-43.94766315 33.2477975 -42.99332739 34.0022242 -40 35 C-32.31119787 33.66490443 -25.52395978 29.1114358 -18.9375 25.1875 C-17.90044922 24.58357422 -16.86339844 23.97964844 -15.79492188 23.35742188 C-6.89718056 18.364546 -6.89718056 18.364546 1 12 C1.67166707 8.74303896 1.67166707 8.74303896 1 6 C0.34 5.67 -0.32 5.34 -1 5 Z " fill="#D9D9D9" transform="translate(144,24)"/>
<path d="M0 0 C-1.16658134 3.49974401 -1.71767534 3.69852677 -4.81640625 5.41015625 C-5.58017578 5.84263672 -6.34394531 6.27511719 -7.13085938 6.72070312 C-7.93330078 7.16349609 -8.73574219 7.60628906 -9.5625 8.0625 C-11.15092219 8.94241733 -12.73578705 9.82879805 -14.31640625 10.72265625 C-15.02224854 11.11203369 -15.72809082 11.50141113 -16.45532227 11.90258789 C-17.21993774 12.44580688 -17.21993774 12.44580688 -18 13 C-18 13.66 -18 14.32 -18 15 C-13.31993521 18.23466849 -13.31993521 18.23466849 -7.875 18.875 C-6.92625 18.58625 -5.9775 18.2975 -5 18 C-4.071875 17.731875 -3.14375 17.46375 -2.1875 17.1875 C0.18508214 16.20658176 0.18508214 16.20658176 0.8125 13.875 C0.9053125 12.946875 0.9053125 12.946875 1 12 C3.475 12.495 3.475 12.495 6 13 C6 13.99 6 14.98 6 16 C9.67517904 17.62140252 12.96658615 18.83866345 17 19 C19.56494298 17.89852247 21.65293037 16.54906596 24 15 C24 14.34 24 13.68 24 13 C15.09 8.05 15.09 8.05 6 3 C6.33 2.01 6.66 1.02 7 0 C7.47832275 0.29245605 7.95664551 0.58491211 8.44946289 0.88623047 C10.64875697 2.2243312 12.85547625 3.54969045 15.0625 4.875 C15.81466797 5.33519531 16.56683594 5.79539062 17.34179688 6.26953125 C20.84664789 8.36333835 24.01455902 10.14989337 27.99609375 11.1328125 C28.98738281 11.41898438 29.97867188 11.70515625 31 12 C31.495 13.485 31.495 13.485 32 15 C33.86307651 16.37677785 33.86307651 16.37677785 36.0625 17.5625 C38.28515625 18.81640625 38.28515625 18.81640625 40 20 C40 20.66 40 21.32 40 22 C35.28971963 20.1682243 35.28971963 20.1682243 33.0625 18.875 C30.05977228 17.60111551 28.26375966 17.5689374 25 18 C23.45540396 18.83233532 21.93563659 19.71168417 20.4375 20.625 C16.33701497 23.06740299 16.33701497 23.06740299 13.1875 22.4375 C12.1046875 21.7259375 12.1046875 21.7259375 11 21 C7.18986451 18.63508832 3.37973208 18.2782464 -1 19 C-2.91633618 19.93730954 -2.91633618 19.93730954 -4.6875 21.125 C-8 23 -8 23 -10.5625 22.4375 C-11.366875 21.963125 -12.17125 21.48875 -13 21 C-18.70310603 17.92079427 -18.70310603 17.92079427 -25 17 C-28.1699001 18.41057952 -31.08330718 20.12683506 -34 22 C-34 21.01 -34 20.02 -34 19 C-27.25 15 -27.25 15 -25 15 C-24.67 13.68 -24.34 12.36 -24 11 C-23.00613281 10.76539063 -22.01226562 10.53078125 -20.98828125 10.2890625 C-16.59218227 9.03366682 -13.01987048 6.81551453 -9.1875 4.375 C-2.24252301 0 -2.24252301 0 0 0 Z " fill="#EAEAEA" transform="translate(143,50)"/>
<path d="M0 0 C2.43119623 1.87015094 3.64069173 3.28138345 5 6 C5 7.98 5 9.96 5 12 C0.38 12 -4.24 12 -9 12 C-8.34 13.32 -7.68 14.64 -7 16 C-3.05272412 16.17942163 -0.4019487 16.09350689 3 14 C3.66 14.66 4.32 15.32 5 16 C4.0625 17.9375 4.0625 17.9375 2 20 C-1.02956528 20.93980734 -3.83810578 21.24962323 -7 21 C-9.92143417 19.23496686 -11.47923817 18.04152365 -13 15 C-13.54930958 9.62310433 -13.54185108 5.35920132 -10 1 C-6.80766515 -0.59616743 -3.46538503 -0.51466114 0 0 Z M-7.25 4.3125 C-7.8275 4.869375 -8.405 5.42625 -9 6 C-9 6.66 -9 7.32 -9 8 C-5.7 8 -2.4 8 1 8 C-0.48958333 4.02083333 -0.48958333 4.02083333 -2.875 3.0625 C-5.12789724 2.80870524 -5.12789724 2.80870524 -7.25 4.3125 Z " fill="#FFFFFF" transform="translate(117,90)"/>
<path d="M0 0 C2.65325959 0.54237903 3.43828898 1.3404645 5.12109375 3.43359375 C5.46166992 5.3347168 5.46166992 5.3347168 5.4140625 7.4453125 C5.40439453 8.20263672 5.39472656 8.95996094 5.38476562 9.74023438 C5.35962891 10.52591797 5.33449219 11.31160156 5.30859375 12.12109375 C5.28829102 13.31702148 5.28829102 13.31702148 5.26757812 14.53710938 C5.23226464 16.50289342 5.17845822 18.46832957 5.12109375 20.43359375 C4.31671875 20.41296875 3.51234375 20.39234375 2.68359375 20.37109375 C0.1875449 20.13725754 0.1875449 20.13725754 -0.87890625 21.43359375 C-4.09089735 21.71910407 -6.29129755 21.69647132 -9.25390625 20.37109375 C-10.87890625 18.43359375 -10.87890625 18.43359375 -11.25390625 14.87109375 C-10.87890625 11.43359375 -10.87890625 11.43359375 -8.87890625 9.43359375 C-6.49609375 9.01953125 -6.49609375 9.01953125 -3.75390625 8.80859375 C-2.84382812 8.73382813 -1.93375 8.6590625 -0.99609375 8.58203125 C0.05191406 8.50855469 0.05191406 8.50855469 1.12109375 8.43359375 C1.12109375 7.11359375 1.12109375 5.79359375 1.12109375 4.43359375 C-4.42943911 5.17719048 -4.42943911 5.17719048 -9.87890625 6.43359375 C-10.20890625 5.77359375 -10.53890625 5.11359375 -10.87890625 4.43359375 C-7.7467762 0.0758476 -5.00743824 -0.00844425 0 0 Z M-6.87890625 13.43359375 C-6.87890625 14.75359375 -6.87890625 16.07359375 -6.87890625 17.43359375 C-3.96238451 17.60040484 -3.96238451 17.60040484 -0.87890625 17.43359375 C-0.21890625 16.77359375 0.44109375 16.11359375 1.12109375 15.43359375 C1.12109375 14.11359375 1.12109375 12.79359375 1.12109375 11.43359375 C-2.08286041 11.43359375 -3.97290364 12.17694397 -6.87890625 13.43359375 Z " fill="#FFFFFF" transform="translate(229.87890625,89.56640625)"/>
<path d="M0 0 C1.32 0 2.64 0 4 0 C4.33 2.64 4.66 5.28 5 8 C5.33 7.67 5.66 7.34 6 7 C12.46153846 6.64102564 12.46153846 6.64102564 16 9 C17.2062252 12.61867559 17.10816918 15.92506251 17.0625 19.6875 C17.05798828 20.38939453 17.05347656 21.09128906 17.04882812 21.81445312 C17.03706927 23.54300538 17.01913454 25.27151365 17 27 C15.68 27 14.36 27 13 27 C12.67 21.72 12.34 16.44 12 11 C10.35 11 8.7 11 7 11 C4.14206684 13.85793316 4.59200059 16.14665584 4.375 20.125 C4.26285156 22.04699219 4.26285156 22.04699219 4.1484375 24.0078125 C4.09945312 24.99523437 4.05046875 25.98265625 4 27 C2.68 27 1.36 27 0 27 C0 18.09 0 9.18 0 0 Z " fill="#FFFFFF" transform="translate(139,83)"/>
<path d="M0 0 C1.32 0 2.64 0 4 0 C4.33 4.62 4.66 9.24 5 14 C6.60875 12.2675 6.60875 12.2675 8.25 10.5 C10.078125 8.53125 10.078125 8.53125 12 7 C13.32 7 14.64 7 16 7 C14.55746343 10.36591866 12.66735273 12.51047079 10 15 C11.38264837 17.86867231 12.92148553 20.56024032 14.625 23.25 C15.07101563 23.95640625 15.51703125 24.6628125 15.9765625 25.390625 C16.31429687 25.92171875 16.65203125 26.4528125 17 27 C14.875 27.4375 14.875 27.4375 12 27 C10.24583979 25.3273289 8.80473715 23.55236118 7.33203125 21.62890625 C6.07775666 19.86833905 6.07775666 19.86833905 4 19 C4 21.64 4 24.28 4 27 C2.68 27 1.36 27 0 27 C0 18.09 0 9.18 0 0 Z " fill="#FFFFFF" transform="translate(190,83)"/>
<path d="M0 0 C2.43119623 1.87015094 3.64069173 3.28138345 5 6 C5.55512815 10.63213493 5.6364242 13.98172127 3.125 18 C0.6457271 20.33343332 -0.38400855 20.91600117 -3.75 21.375 C-7.17430449 20.97988794 -9.29332217 20.18355689 -11.85546875 17.82421875 C-14.32317347 13.89105115 -13.86482633 9.40335236 -13 5 C-9.50369752 -0.57223207 -6.10548903 -0.87221272 0 0 Z M-7.625 4.1875 C-9.39383981 6.51915248 -9.79161435 8.08260091 -10 11 C-9.00022932 14.28805688 -9.00022932 14.28805688 -7 17 C-3.48254713 16.74751373 -3.48254713 16.74751373 0 16 C1.54586876 12.90826248 1.29359521 10.40570448 1 7 C-0.66788932 4.49722089 -0.66788932 4.49722089 -3 3 C-5.93174698 2.70499171 -5.93174698 2.70499171 -7.625 4.1875 Z " fill="#FFFFFF" transform="translate(83,90)"/>
<path d="M0 0 C12.50824942 -0.37153216 12.50824942 -0.37153216 14.67773438 1.26757812 C16.28628107 3.37508318 16.35212709 4.38903255 16.29296875 7.01171875 C16.28330078 7.76904297 16.27363281 8.52636719 16.26367188 9.30664062 C16.23853516 10.09232422 16.21339844 10.87800781 16.1875 11.6875 C16.16719727 12.88342773 16.16719727 12.88342773 16.14648438 14.10351562 C16.11117089 16.06929967 16.05736447 18.03473582 16 20 C15.01 20 14.02 20 13 20 C12.95101562 19.18015625 12.90203125 18.3603125 12.8515625 17.515625 C12.73941406 15.89914063 12.73941406 15.89914063 12.625 14.25 C12.55539063 13.18265625 12.48578125 12.1153125 12.4140625 11.015625 C12.0271777 8.19793568 11.44313834 6.4169634 10 4 C8.35 4 6.7 4 5 4 C4.67 9.28 4.34 14.56 4 20 C2.68 20 1.36 20 0 20 C0 13.4 0 6.8 0 0 Z " fill="#FFFFFF" transform="translate(169,90)"/>
<path d="M0 0 C2.5 1.8125 2.5 1.8125 4 4 C4 4.99 4 5.98 4 7 C2.68 7 1.36 7 0 7 C-0.495 6.484375 -0.99 5.96875 -1.5 5.4375 C-1.995 4.963125 -2.49 4.48875 -3 4 C-5.10231241 4.00469206 -5.10231241 4.00469206 -7 5 C-9.38798682 7.90585687 -9.38798682 7.90585687 -8.6875 11.625 C-8.35886877 14.82504312 -8.35886877 14.82504312 -7 16 C-4.54190002 16.2500773 -4.54190002 16.2500773 -2 16 C-1.34 15.34 -0.68 14.68 0 14 C1.32 14 2.64 14 4 14 C2.75023244 17.65316671 2.32901247 18.78065836 -1 21 C-4.41087879 21.37074769 -6.56586507 21.17760065 -9.75 19.875 C-12.69498651 17.42084458 -13.27878672 15.75030907 -14 12 C-13.92481716 7.71457806 -13.40886708 5.58232584 -10.9375 2.0625 C-6.83707859 -0.81651929 -4.94305629 -0.7061509 0 0 Z " fill="#FFFFFF" transform="translate(63,90)"/>
<path d="M0 0 C1.32 0 2.64 0 4 0 C4 1.65 4 3.3 4 5 C5.32 5 6.64 5 8 5 C8 5.99 8 6.98 8 8 C6.68 8 5.36 8 4 8 C4.33 12.29 4.66 16.58 5 21 C5.99 21.33 6.98 21.66 8 22 C8 23.32 8 24.64 8 26 C2.25 25.25 2.25 25.25 0 23 C-0.14497985 20.41935871 -0.18677545 17.95056116 -0.125 15.375 C-0.11597656 14.66859375 -0.10695313 13.9621875 -0.09765625 13.234375 C-0.07407603 11.48943902 -0.03820461 9.74467705 0 8 C-0.99 8 -1.98 8 -3 8 C-3 7.01 -3 6.02 -3 5 C-2.01 5 -1.02 5 0 5 C0 3.35 0 1.7 0 0 Z " fill="#FFFFFF" transform="translate(127,85)"/>
<path d="M0 0 C0.99 0.33 1.98 0.66 3 1 C-0.84348411 4.25048942 -4.82398529 6.78782869 -9.1875 9.25 C-10.13012695 9.79527344 -10.13012695 9.79527344 -11.09179688 10.3515625 C-15.74647556 13 -15.74647556 13 -18 13 C-18.33 14.32 -18.66 15.64 -19 17 C-20.155 17.23460937 -21.31 17.46921875 -22.5 17.7109375 C-27.21240179 18.88903795 -30.92944653 21.03538348 -35 23.625 C-35.67933594 24.04523438 -36.35867187 24.46546875 -37.05859375 24.8984375 C-38.71161925 25.92284767 -40.3566824 26.96008808 -42 28 C-42.33 27.01 -42.66 26.02 -43 25 C-40.21251481 23.32626249 -37.41935573 21.66223733 -34.625 20 C-33.8309375 19.52304688 -33.036875 19.04609375 -32.21875 18.5546875 C-31.45820313 18.10351562 -30.69765625 17.65234375 -29.9140625 17.1875 C-28.8614624 16.55908203 -28.8614624 16.55908203 -27.78759766 15.91796875 C-26 15 -26 15 -24 15 C-23.67 13.68 -23.34 12.36 -23 11 C-21.84113281 10.76667969 -20.68226563 10.53335938 -19.48828125 10.29296875 C-14.79939497 9.12255497 -11.19536557 6.94507769 -7.1875 4.3125 C-4.82033609 2.76159951 -2.48992599 1.36163212 0 0 Z " fill="#FEFEFE" transform="translate(192,144)"/>
<path d="M0 0 C0.721875 0.474375 1.44375 0.94875 2.1875 1.4375 C5.99763549 3.80241168 9.80776792 4.1592536 14.1875 3.4375 C16.10383618 2.50019046 16.10383618 2.50019046 17.875 1.3125 C21.1875 -0.5625 21.1875 -0.5625 23.6875 -0.0625 C24.5125 0.4325 25.3375 0.9275 26.1875 1.4375 C27.45818473 2.14609987 28.72902464 2.85442154 30 3.5625 C31.051875 4.18125 32.10375 4.8 33.1875 5.4375 C32.5275 6.0975 31.8675 6.7575 31.1875 7.4375 C30.15625 6.756875 29.125 6.07625 28.0625 5.375 C25.29493608 3.79592623 24.36026072 3.43058957 21.0625 3.5625 C20.11375 3.85125 19.165 4.14 18.1875 4.4375 C16.7953125 4.8396875 16.7953125 4.8396875 15.375 5.25 C13.00241786 6.23091824 13.00241786 6.23091824 12.375 8.5625 C12.2821875 9.490625 12.2821875 9.490625 12.1875 10.4375 C9.7125 9.9425 9.7125 9.9425 7.1875 9.4375 C7.1875 8.4475 7.1875 7.4575 7.1875 6.4375 C0.77117822 3.5006672 0.77117822 3.5006672 -5.97265625 4.26953125 C-7.9634102 5.26315271 -9.89771486 6.30515244 -11.8125 7.4375 C-11.8125 6.4475 -11.8125 5.4575 -11.8125 4.4375 C-3.80531683 -0.76106337 -3.80531683 -0.76106337 0 0 Z " fill="#FEFEFE" transform="translate(135.8125,126.5625)"/>
<path d="M0 0 C0.495 1.485 0.495 1.485 1 3 C-1.78748519 4.67373751 -4.58064427 6.33776267 -7.375 8 C-8.1690625 8.47695313 -8.963125 8.95390625 -9.78125 9.4453125 C-10.54179687 9.89648438 -11.30234375 10.34765625 -12.0859375 10.8125 C-12.7876709 11.23144531 -13.4894043 11.65039062 -14.21240234 12.08203125 C-16 13 -16 13 -18 13 C-18.33 14.32 -18.66 15.64 -19 17 C-20.15886719 17.23332031 -21.31773438 17.46664062 -22.51171875 17.70703125 C-27.20060503 18.87744503 -30.80463443 21.05492231 -34.8125 23.6875 C-37.17966391 25.23840049 -39.51007401 26.63836788 -42 28 C-42.99 27.67 -43.98 27.34 -45 27 C-41.15651589 23.74951058 -37.17601471 21.21217131 -32.8125 18.75 C-32.18408203 18.38648437 -31.55566406 18.02296875 -30.90820312 17.6484375 C-26.25352444 15 -26.25352444 15 -24 15 C-23.67 13.68 -23.34 12.36 -23 11 C-21.845 10.76539063 -20.69 10.53078125 -19.5 10.2890625 C-14.78759821 9.11096205 -11.07055347 6.96461652 -7 4.375 C-6.32066406 3.95476563 -5.64132813 3.53453125 -4.94140625 3.1015625 C-3.28838075 2.07715233 -1.6433176 1.03991192 0 0 Z " fill="#FEFEFE" transform="translate(142,27)"/>
<path d="M0 0 C0.92941406 0.54269531 1.85882813 1.08539063 2.81640625 1.64453125 C4.06498532 2.36739282 5.31368999 3.09003747 6.5625 3.8125 C7.17158203 4.16892578 7.78066406 4.52535156 8.40820312 4.89257812 C13.99545072 8.11485319 19.54676035 11.02223642 26 12 C26.33 12.99 26.66 13.98 27 15 C28.7007508 16.28469452 28.7007508 16.28469452 30.81640625 17.375 C31.58017578 17.80296875 32.34394531 18.2309375 33.13085938 18.671875 C34.75496266 19.55893543 36.37996763 20.44434691 38.00585938 21.328125 C38.76833984 21.75609375 39.53082031 22.1840625 40.31640625 22.625 C41.37516968 23.20121094 41.37516968 23.20121094 42.45532227 23.7890625 C42.96506592 24.18867188 43.47480957 24.58828125 44 25 C44 25.99 44 26.98 44 28 C43.28251587 27.56131592 43.28251587 27.56131592 42.55053711 27.11376953 C40.35124303 25.7756688 38.14452375 24.45030955 35.9375 23.125 C35.18533203 22.66480469 34.43316406 22.20460937 33.65820312 21.73046875 C30.1367535 19.62674559 27.17142006 18.04817343 23.19140625 16.9296875 C19.5572604 15.87102567 18.57172346 14.68774105 16 12 C13.32918912 10.2725091 10.544996 8.76601373 7.75 7.25 C7.00492188 6.83878906 6.25984375 6.42757812 5.4921875 6.00390625 C3.66480769 4.99650456 1.83285137 3.99741214 0 3 C0 2.01 0 1.02 0 0 Z " fill="#FFFFFF" transform="translate(98,144)"/>
<path d="M0 0 C11.87863453 5.76632744 11.87863453 5.76632744 15.3125 8.25 C18.00993989 10.1998506 18.00993989 10.1998506 21.625 11 C25 12 25 12 26.6953125 13.765625 C29.84396661 16.81821848 33.41430496 18.66950817 37.25 20.75 C37.99507812 21.16121094 38.74015625 21.57242188 39.5078125 21.99609375 C41.33519231 23.00349544 43.16714863 24.00258786 45 25 C45 25.99 45 26.98 45 28 C43.60587891 27.18595703 43.60587891 27.18595703 42.18359375 26.35546875 C40.93501468 25.63260718 39.68631001 24.90996253 38.4375 24.1875 C37.82841797 23.83107422 37.21933594 23.47464844 36.59179688 23.10742188 C31.00454928 19.88514681 25.45323965 16.97776358 19 16 C18.67 15.01 18.34 14.02 18 13 C16.31597573 11.7156015 16.31597573 11.7156015 14.21875 10.625 C13.45949219 10.19703125 12.70023438 9.7690625 11.91796875 9.328125 C11.12003906 8.88984375 10.32210937 8.4515625 9.5 8 C7.92240233 7.13346816 6.3492287 6.25881821 4.78125 5.375 C4.08064453 4.99085937 3.38003906 4.60671875 2.65820312 4.2109375 C1 3 1 3 0 0 Z " fill="#FFFFFF" transform="translate(149,27)"/>
<path d="M0 0 C1.67542976 0.28604898 3.34385343 0.61781233 5 1 C4.91621094 1.66386719 4.83242187 2.32773438 4.74609375 3.01171875 C4.21652501 7.60354895 3.83088203 11.46966788 5 16 C4.67 16.33 4.34 16.66 4 17 C3.82576399 20.83319229 4.12196632 24.26835686 5 28 C3.35 28.33 1.7 28.66 0 29 C-0.38218767 27.34385343 -0.71395102 25.67542976 -1 24 C-0.67 23.67 -0.34 23.34 0 23 C0.13961241 19.92852697 0.04131994 17.20659968 -0.5625 14.1875 C-0.7790625 13.1046875 -0.7790625 13.1046875 -1 12 C-0.67 11.67 -0.34 11.34 0 11 C0.15174493 8.26859133 -0.01319198 5.93550587 -0.5625 3.25 C-0.706875 2.5075 -0.85125 1.765 -1 1 C-0.67 0.67 -0.34 0.34 0 0 Z " fill="#D9D9D9" transform="translate(144,146)"/>
<path d="M0 0 C1.67542976 0.28604898 3.34385343 0.61781233 5 1 C4.91621094 1.73605469 4.83242187 2.47210937 4.74609375 3.23046875 C4.64425781 4.20628906 4.54242188 5.18210937 4.4375 6.1875 C4.33308594 7.15042969 4.22867188 8.11335938 4.12109375 9.10546875 C4.00248381 11.94062898 4.41691897 14.24138974 5 17 C4.67 17.33 4.34 17.66 4 18 C3.80617725 21.48880949 4.22324489 24.60169639 5 28 C3.35 28.33 1.7 28.66 0 29 C-0.38218767 27.34385343 -0.71395102 25.67542976 -1 24 C-0.67 23.67 -0.34 23.34 0 23 C0.15174493 20.26859133 -0.01319198 17.93550587 -0.5625 15.25 C-0.706875 14.5075 -0.85125 13.765 -1 13 C-0.67 12.67 -0.34 12.34 0 12 C0.13961241 8.92852697 0.04131994 6.20659968 -0.5625 3.1875 C-0.706875 2.465625 -0.85125 1.74375 -1 1 C-0.67 0.67 -0.34 0.34 0 0 Z " fill="#D9D9D9" transform="translate(144,24)"/>
<path d="M0 0 C3.63 0 7.26 0 11 0 C10.67 1.32 10.34 2.64 10 4 C8.35 4.33 6.7 4.66 5 5 C4.67 9.95 4.34 14.9 4 20 C2.68 20 1.36 20 0 20 C0 13.4 0 6.8 0 0 Z " fill="#FFFFFF" transform="translate(92,90)"/>
<path d="M0 0 C0.66 0.66 1.32 1.32 2 2 C-9.33333333 8.66666667 -20.66666667 15.33333333 -32 22 C-32.33 21.01 -32.66 20.02 -33 19 C-32.17798096 18.53102295 -31.35596191 18.0620459 -30.5090332 17.57885742 C-27.44302692 15.82929662 -24.37730368 14.07924185 -21.31176758 12.32885742 C-19.98798654 11.57312701 -18.66409483 10.81759043 -17.34008789 10.06225586 C-15.43085675 8.97301041 -13.5220321 7.88305557 -11.61328125 6.79296875 C-10.73329216 6.29122383 -10.73329216 6.29122383 -9.83552551 5.77934265 C-6.53261838 3.89203077 -3.25443264 1.96971804 0 0 Z " fill="#FFFFFF" transform="translate(182,139)"/>
<path d="M0 0 C0.495 1.485 0.495 1.485 1 3 C-2.87655834 5.22582818 -6.75436319 7.44946451 -10.63330078 9.67114258 C-11.95069676 10.42608572 -13.26775971 11.18161033 -14.58447266 11.93774414 C-16.48511344 13.02906589 -18.38697109 14.11824024 -20.2890625 15.20703125 C-21.43068848 15.8616333 -22.57231445 16.51623535 -23.74853516 17.19067383 C-26.79360694 18.8851495 -29.87039999 20.46836132 -33 22 C-33 21.01 -33 20.02 -33 19 C-32.28457031 18.60208252 -31.56914063 18.20416504 -30.83203125 17.79418945 C-28.13986267 16.29551702 -25.44874861 14.79497195 -22.75830078 13.29321289 C-21.03627108 12.33273062 -19.31306956 11.37435026 -17.58984375 10.41601562 C-11.62621085 7.08544871 -5.75111305 3.68606878 0 0 Z " fill="#FFFFFF" transform="translate(142,38)"/>
<path d="M0 0 C1.32 0 2.64 0 4 0 C4 6.6 4 13.2 4 20 C2.68 20 1.36 20 0 20 C0 13.4 0 6.8 0 0 Z " fill="#FFFFFF" transform="translate(240,90)"/>
<path d="M0 0 C1.32 0 2.64 0 4 0 C4 6.6 4 13.2 4 20 C2.68 20 1.36 20 0 20 C0 13.4 0 6.8 0 0 Z " fill="#FFFFFF" transform="translate(160,90)"/>
<path d="M0 0 C4.27542297 0.59496973 7.31908046 2.10998255 11.03515625 4.2734375 C12.17404297 4.9334375 13.31292969 5.5934375 14.48632812 6.2734375 C15.07357666 6.61858398 15.6608252 6.96373047 16.26586914 7.31933594 C18.0564459 8.37144273 19.8527586 9.41312791 21.65039062 10.453125 C31.17231037 15.99903633 31.17231037 15.99903633 35 19 C34.67 19.66 34.34 20.32 34 21 C30.12061857 18.7974236 26.24292004 16.59192079 22.36669922 14.38378906 C21.05009157 13.63430072 19.7330415 12.88558897 18.41552734 12.13769531 C16.51280405 11.05742092 14.61173313 9.9742868 12.7109375 8.890625 C11.56931152 8.24125977 10.42768555 7.59189453 9.25146484 6.92285156 C6.07406019 5.04379772 3.01603318 3.12634619 0 1 C0 0.67 0 0.34 0 0 Z " fill="#FFFFFF" transform="translate(108,140)"/>
<path d="M0 0 C7.15859194 3.39308982 14.05230964 7.10606347 20.875 11.125 C21.587771 11.54442871 22.30054199 11.96385742 23.03491211 12.39599609 C27.10849664 14.81559737 31.0824749 17.33510048 35 20 C32 21 32 21 29.69091797 20.01538086 C28.80033691 19.50370361 27.90975586 18.99202637 26.9921875 18.46484375 C26.00476563 17.90216797 25.01734375 17.33949219 24 16.75976562 C22.96875 16.15841797 21.9375 15.55707031 20.875 14.9375 C19.86695313 14.36322266 18.85890625 13.78894531 17.8203125 13.19726562 C3.99457843 5.25463213 3.99457843 5.25463213 0 2 C0 1.34 0 0.68 0 0 Z " fill="#FFFFFF" transform="translate(149,38)"/>
<path d="M0 0 C1.65 0.33 3.3 0.66 5 1 C4.7834375 1.9590625 4.7834375 1.9590625 4.5625 2.9375 C3.82763202 6.93844788 3.41418889 10.95504896 3 15 C2.34 15 1.68 15 1 15 C0.67 12.03 0.34 9.06 0 6 C-1.98 6.66 -3.96 7.32 -6 8 C-6 7.01 -6 6.02 -6 5 C-5.38125 4.731875 -4.7625 4.46375 -4.125 4.1875 C-1.7004767 3.04443152 -1.7004767 3.04443152 0 0 Z " fill="#E0E0E0" transform="translate(195,53)"/>
<path d="M0 0 C3.76087736 0.39588183 5.52690756 1.17360864 8 4 C8.66 4.33 9.32 4.66 10 5 C9.67 5.99 9.34 6.98 9 8 C6.525 7.01 6.525 7.01 4 6 C3.67 8.97 3.34 11.94 3 15 C2.34 15 1.68 15 1 15 C0.93941406 14.40832031 0.87882812 13.81664063 0.81640625 13.20703125 C0.45123472 9.76318281 0.08191112 6.39317337 -0.625 3 C-0.74875 2.34 -0.8725 1.68 -1 1 C-0.67 0.67 -0.34 0.34 0 0 Z " fill="#E0E0E0" transform="translate(93,53)"/>
<path d="M0 0 C0.66 0 1.32 0 2 0 C2.06058594 0.59167969 2.12117187 1.18335938 2.18359375 1.79296875 C2.62012371 5.90978208 3.08671346 9.95544533 4 14 C2.35 14.33 0.7 14.66 -1 15 C-1.38218767 13.34385343 -1.71395102 11.67542976 -2 10 C-1.67 9.67 -1.34 9.34 -1 9 C-0.76807135 7.48530552 -0.58784762 5.96245438 -0.4375 4.4375 C-0.35371094 3.61121094 -0.26992187 2.78492188 -0.18359375 1.93359375 C-0.12300781 1.29550781 -0.06242188 0.65742188 0 0 Z " fill="#D9D9D9" transform="translate(196,131)"/>
<path d="M0 0 C0.66 0 1.32 0 2 0 C2.06058594 0.59167969 2.12117188 1.18335938 2.18359375 1.79296875 C2.62012371 5.90978208 3.08671346 9.95544533 4 14 C2.35 14.33 0.7 14.66 -1 15 C-1.38218767 13.34385343 -1.71395102 11.67542976 -2 10 C-1.67 9.67 -1.34 9.34 -1 9 C-0.76807135 7.48530552 -0.58784762 5.96245438 -0.4375 4.4375 C-0.35371094 3.61121094 -0.26992187 2.78492188 -0.18359375 1.93359375 C-0.12300781 1.29550781 -0.06242187 0.65742188 0 0 Z " fill="#D9D9D9" transform="translate(94,131)"/>
<path d="M0 0 C0 0.66 0 1.32 0 2 C-2.90885248 3.68059086 -5.82824894 5.34195109 -8.75 7 C-9.575 7.47695313 -10.4 7.95390625 -11.25 8.4453125 C-12.44882813 9.12207031 -12.44882813 9.12207031 -13.671875 9.8125 C-14.4050293 10.23144531 -15.13818359 10.65039062 -15.89355469 11.08203125 C-18 12 -18 12 -22 12 C-18.17137865 8.76823597 -14.21163979 6.21503735 -9.875 3.75 C-9.25496094 3.38648438 -8.63492188 3.02296875 -7.99609375 2.6484375 C-5.12283735 1.00481126 -3.36543293 0 0 0 Z " fill="#FEFEFE" transform="translate(119,42)"/>
<path d="M0 0 C0 0.66 0 1.32 0 2 C-1.74414062 3.23681641 -1.74414062 3.23681641 -4.15625 4.6015625 C-5.01347656 5.09140625 -5.87070313 5.58125 -6.75390625 6.0859375 C-7.66011719 6.59382812 -8.56632813 7.10171875 -9.5 7.625 C-10.40621094 8.140625 -11.31242188 8.65625 -12.24609375 9.1875 C-14.4936856 10.46507852 -16.74502104 11.73551992 -19 13 C-19.33 12.01 -19.66 11.02 -20 10 C-17.23549979 8.32265277 -14.46243144 6.66002366 -11.6875 5 C-10.90181641 4.52304688 -10.11613281 4.04609375 -9.30664062 3.5546875 C-8.54931641 3.10351562 -7.79199219 2.65234375 -7.01171875 2.1875 C-6.31522217 1.76855469 -5.61872559 1.34960938 -4.90112305 0.91796875 C-3 0 -3 0 0 0 Z " fill="#FEFEFE" transform="translate(169,159)"/>
<path d="M0 0 C0.763125 0.495 1.52625 0.99 2.3125 1.5 C3.405625 2.03625 4.49875 2.5725 5.625 3.125 C6.511875 3.57875 7.39875 4.0325 8.3125 4.5 C7.9825 5.16 7.6525 5.82 7.3125 6.5 C6.61125 6.190625 5.91 5.88125 5.1875 5.5625 C-0.25006433 3.44353896 -0.25006433 3.44353896 -5.84765625 4.33203125 C-7.8384102 5.32565271 -9.77271486 6.36765244 -11.6875 7.5 C-11.6875 6.51 -11.6875 5.52 -11.6875 4.5 C-3.69690192 -0.68779571 -3.69690192 -0.68779571 0 0 Z " fill="#FFFFFF" transform="translate(135.6875,126.5)"/>
<path d="M0 0 C0.66 0.66 1.32 1.32 2 2 C0.45245118 3.06375201 -1.11378184 4.10036014 -2.6875 5.125 C-3.55761719 5.70507812 -4.42773438 6.28515625 -5.32421875 6.8828125 C-8 8 -8 8 -10.625 7.28125 C-11.40875 6.8584375 -12.1925 6.435625 -13 6 C-14.093125 5.46375 -15.18625 4.9275 -16.3125 4.375 C-17.199375 3.92125 -18.08625 3.4675 -19 3 C-18.67 2.34 -18.34 1.68 -18 1 C-17.29875 1.309375 -16.5975 1.61875 -15.875 1.9375 C-10.53201716 4.07596391 -10.53201716 4.07596391 -5.0625 3.16796875 C-3.33347053 2.18144589 -1.66143258 1.0965455 0 0 Z " fill="#FFFFFF" transform="translate(167,65)"/>
<path d="M0 0 C7.11791847 3.81607036 14.11027102 7.78545863 21 12 C20.34 12.66 19.68 13.32 19 14 C15.82292806 12.24736275 12.660399 10.470001 9.5 8.6875 C8.59378906 8.18798828 7.68757812 7.68847656 6.75390625 7.17382812 C5.89667969 6.68720703 5.03945312 6.20058594 4.15625 5.69921875 C2.96225586 5.03152466 2.96225586 5.03152466 1.74414062 4.3503418 C1.16857422 3.904729 0.59300781 3.45911621 0 3 C0 2.01 0 1.02 0 0 Z " fill="#FFFFFF" transform="translate(174,41)"/>
<path d="M0 0 C0.66 0.66 1.32 1.32 2 2 C-0.06228254 3.27118733 -2.12481891 4.54195965 -4.1875 5.8125 C-4.76564453 6.16892578 -5.34378906 6.52535156 -5.93945312 6.89257812 C-7.62496993 7.93055175 -9.31246025 8.96531853 -11 10 C-11.92425781 10.58136719 -12.84851563 11.16273438 -13.80078125 11.76171875 C-16 13 -16 13 -18 13 C-16.83599063 9.50797189 -16.25731614 9.27269143 -13.18359375 7.51953125 C-12.41982422 7.07802734 -11.65605469 6.63652344 -10.86914062 6.18164062 C-10.06669922 5.72982422 -9.26425781 5.27800781 -8.4375 4.8125 C-7.63119141 4.34908203 -6.82488281 3.88566406 -5.99414062 3.40820312 C-4.00057554 2.26396754 -2.00257569 1.12836769 0 0 Z " fill="#FFFFFF" transform="translate(167,136)"/>
<path d="M0 0 C-1.16400937 3.49202811 -1.74268386 3.72730857 -4.81640625 5.48046875 C-5.58017578 5.92197266 -6.34394531 6.36347656 -7.13085938 6.81835938 C-7.93330078 7.27017578 -8.73574219 7.72199219 -9.5625 8.1875 C-10.36880859 8.65091797 -11.17511719 9.11433594 -12.00585938 9.59179688 C-13.99942446 10.73603246 -15.99742431 11.87163231 -18 13 C-18.66 12.34 -19.32 11.68 -20 11 C-17.93771746 9.72881267 -15.87518109 8.45804035 -13.8125 7.1875 C-13.23435547 6.83107422 -12.65621094 6.47464844 -12.06054688 6.10742188 C-10.37503007 5.06944825 -8.68753975 4.03468147 -7 3 C-6.07574219 2.41863281 -5.15148437 1.83726563 -4.19921875 1.23828125 C-2 0 -2 0 0 0 Z " fill="#FFFFFF" transform="translate(143,50)"/>
<path d="M0 0 C6.72253472 3.17180135 12.91805372 6.72500877 19 11 C18.67 11.66 18.34 12.32 18 13 C11.73 9.37 5.46 5.74 -1 2 C-0.67 1.34 -0.34 0.68 0 0 Z " fill="#FFFFFF" transform="translate(124,159)"/>
<path d="M0 0 C6.43557831 3.17023562 12.82195683 6.34933813 19 10 C18.67 10.99 18.34 11.98 18 13 C11.73 9.37 5.46 5.74 -1 2 C-0.67 1.34 -0.34 0.68 0 0 Z " fill="#FFFFFF" transform="translate(124,136)"/>
<path d="M0 0 C6.68412752 3.63566563 13.35556707 7.29224236 20 11 C19.34 11.66 18.68 12.32 18 13 C12.06 9.7 6.12 6.4 0 3 C0 2.01 0 1.02 0 0 Z " fill="#FFFFFF" transform="translate(149,50)"/>
<path d="M0 0 C1.65 0.33 3.3 0.66 5 1 C4.67 2.65 4.34 4.3 4 6 C2.35 5.67 0.7 5.34 -1 5 C-0.67 3.35 -0.34 1.7 0 0 Z " fill="#D9D9D9" transform="translate(119,155)"/>
<path d="M0 0 C1.65 0.33 3.3 0.66 5 1 C4.67 2.65 4.34 4.3 4 6 C2.35 5.67 0.7 5.34 -1 5 C-0.67 3.35 -0.34 1.7 0 0 Z " fill="#DADADA" transform="translate(119,132)"/>
<path d="M0 0 C1.65 0.33 3.3 0.66 5 1 C4.67 2.65 4.34 4.3 4 6 C2.35 5.67 0.7 5.34 -1 5 C-0.67 3.35 -0.34 1.7 0 0 Z " fill="#D9D9D9" transform="translate(169,38)"/>
<path d="M0 0 C1.32 0 2.64 0 4 0 C4.33 1.65 4.66 3.3 5 5 C3.35 5.33 1.7 5.66 0 6 C-0.38218767 4.34385343 -0.71395102 2.67542976 -1 1 C-0.67 0.67 -0.34 0.34 0 0 Z " fill="#D9D9D9" transform="translate(169,132)"/>
<path d="M0 0 C1.32 0 2.64 0 4 0 C4.33 1.65 4.66 3.3 5 5 C3.35 5.33 1.7 5.66 0 6 C-0.38218767 4.34385343 -0.71395102 2.67542976 -1 1 C-0.67 0.67 -0.34 0.34 0 0 Z " fill="#D9D9D9" transform="translate(144,131)"/>
<path d="M0 0 C1.67542976 0.28604898 3.34385343 0.61781233 5 1 C4.67 2.65 4.34 4.3 4 6 C2.68 6 1.36 6 0 6 C-0.38218767 4.34385343 -0.71395102 2.67542976 -1 1 C-0.67 0.67 -0.34 0.34 0 0 Z " fill="#D9D9D9" transform="translate(144,62)"/>
<path d="M0 0 C1.32 0 2.64 0 4 0 C4.33 1.65 4.66 3.3 5 5 C3.35 5.33 1.7 5.66 0 6 C-0.38218767 4.34385343 -0.71395102 2.67542976 -1 1 C-0.67 0.67 -0.34 0.34 0 0 Z " fill="#D9D9D9" transform="translate(169,155)"/>
<path d="M0 0 C1.32 0 2.64 0 4 0 C4.33 1.65 4.66 3.3 5 5 C3.35 5.33 1.7 5.66 0 6 C-0.38218767 4.34385343 -0.71395102 2.67542976 -1 1 C-0.67 0.67 -0.34 0.34 0 0 Z " fill="#D9D9D9" transform="translate(119,38)"/>
<path d="M0 0 C2.0625 0.4375 2.0625 0.4375 4 1 C4 2.32 4 3.64 4 5 C2.68 5.33 1.36 5.66 0 6 C-0.38218767 4.34385343 -0.71395102 2.67542976 -1 1 C-0.67 0.67 -0.34 0.34 0 0 Z " fill="#FFFFFF" transform="translate(211,105)"/>
<path d="M0 0 C0.33 0.99 0.66 1.98 1 3 C-4.17578125 6.22265625 -4.17578125 6.22265625 -6 7 C-6.99 6.67 -7.98 6.34 -9 6 C-6.03 4.02 -3.06 2.04 0 0 Z " fill="#FEFEFE" transform="translate(182,127)"/>
<path d="M0 0 C3.59391114 1.33488128 6.75490696 2.96022723 10 5 C9.34 5.66 8.68 6.32 8 7 C6.66144944 6.21718695 5.32926356 5.42348123 4 4.625 C3.2575 4.18414062 2.515 3.74328125 1.75 3.2890625 C1.1725 2.86367187 0.595 2.43828125 0 2 C0 1.34 0 0.68 0 0 Z " fill="#FFFFFF" transform="translate(109,127)"/>
<path d="M0 0 C2.97 1.65 5.94 3.3 9 5 C9 5.66 9 6.32 9 7 C5.40608886 5.66511872 2.24509304 4.03977277 -1 2 C-0.67 1.34 -0.34 0.68 0 0 Z " fill="#FFFFFF" transform="translate(174,65)"/>
<path d="M0 0 C-1 3 -1 3 -2.84765625 4.16796875 C-3.57855469 4.50441406 -4.30945313 4.84085937 -5.0625 5.1875 C-5.79597656 5.53167969 -6.52945313 5.87585938 -7.28515625 6.23046875 C-8.13400391 6.61138672 -8.13400391 6.61138672 -9 7 C-9 6.01 -9 5.02 -9 4 C-2.25 0 -2.25 0 0 0 Z " fill="#FFFFFF" transform="translate(118,65)"/>
<path d="M0 0 C1.65 0 3.3 0 5 0 C5 1.32 5 2.64 5 4 C4.01 4.33 3.02 4.66 2 5 C1.34 4.67 0.68 4.34 0 4 C0 2.68 0 1.36 0 0 Z " fill="#FFFFFF" transform="translate(160,83)"/>
<path d="M0 0 C1.32 0 2.64 0 4 0 C4 1.32 4 2.64 4 4 C3.01 4.33 2.02 4.66 1 5 C0.34 3.68 -0.32 2.36 -1 1 C-0.67 0.67 -0.34 0.34 0 0 Z " fill="#FFFFFF" transform="translate(240,83)"/>
</svg>
